@startuml

package domain {

    class User {
        {field} - name: String [0-9a-zA-z\-]+ unmodifiable <<ID>>
        {field} - email: String
        {field} - created: Instant unmodifiable
        {field} - displayName: String
        {field} - firstName: String nullable
        {field} - lastName: String nullable
        {field} - preferredLanguageTag: String
        {field} - birthDate: LocalDate nullable
        {field} - bio: String nullable
        {field} - hoursPlayed: int not negative
        {field} - avatar: tbd nullable
        --
        {method}+ getters
        {method}+ equals(...): boolean
    }

    class Language {
        value object
        ==
        {field} - tag: String [a-z]{2}(?:-[A-Z]{2})?da unmodifiable <<ID>>
        {field} - name: String [0-9a-zA-z\-]+ unmodifiable
        --
        {method} + getters
        {method} + equals(...): boolean
    }
}

package persistence {

    abstract class PersistenceEntity {
        {field} - id: Long unmodifiable
        --
        {method} + getId(): UUID
    }

    class PersistenceUser {
        {field} - name: String [0-9a-zA-z\-]+ unmodifiable
        {field} - email: String
        {field} - created: Instant unmodifiable
        {field} - displayName: String nullable
        {field} - firstName: String nullable
        {field} - lastName: String nullable
        {field} - preferredLanguageTag: String
        {field} - birthDate: LocalDate nullable
        {field} - bio: String nullable
        {field} - hoursPlayed: int not negative
        {field} - avatar: tbd nullable
        --
        {method}+ getters
    }

    class PersistenceLanguage {
        {field} - tag: String [a-z]{2}(?:-[A-Z]{2})? unmodifiable
        {field} - name: String [0-9a-zA-z\-]+ unmodifiable
        --
        {method} + getters
    }

}

User "each" --> "one" Language:  references a

PersistenceEntity <|-- PersistenceUser
PersistenceUser "each" --> "one" PersistenceLanguage: references a

PersistenceUser <-left-> User: maps to
PersistenceLanguage <-left-> Language: maps to

@enduml